<svg xmlns="http://www.w3.org/2000/svg" viewBox="-16 -216 1872 1035" width="1872" height="1035">
<rect x="-16" y="-216" width="1872" height="1035" fill="rgb(255,255,255)"/>
<g transform="scale(1,-1)">
<path d="M83.45,118.5Q186.08,148.14 265.18,198.36Q344.27,248.59 398.25,318.95Q452.23,389.31 480.07,479.28Q507.91,569.25 507.91,678.17L507.91,722L80,722L80,652L463.43,652L428.29,664Q428.05,575.16 404.72,499.38Q381.39,423.61 334.68,362.23Q287.98,300.85 216.95,254.48Q145.93,208.12 50.21,177.42L83.45,118.5ZM702,400L887,400L887,470L702,470L702,400ZM666,-82L742,-82L742,803L666,803L666,-82Z" fill="#000"/>
<path d="M1005.86,284.12Q1111.24,304.99 1190.31,341.96Q1269.37,378.92 1322.13,432.04Q1374.88,485.16 1401.39,554.48Q1427.9,623.79 1427.9,709.05L1427.9,746L1000,746L1000,676L1383.82,676L1346.44,688Q1345.94,625 1323.09,571.44Q1300.24,517.89 1254.68,474.9Q1209.13,431.9 1140.17,399.75Q1071.2,367.6 978.78,346.97L1005.86,284.12ZM1629,508.01L1814,508.01L1814,578.01L1629,578.01L1629,508.01ZM1593,285.74L1669,285.74L1669,803L1593,803L1593,285.74ZM1669.14,-93.48L1669.14,186L1669.14,236L1116,236L1116,166L1632.14,166L1594.69,182L1594.69,-93.48L1669.14,-93.48Z" fill="#000"/>
</g>
</svg>
