<svg xmlns="http://www.w3.org/2000/svg" xmlns:xlink="http://www.w3.org/1999/xlink" viewBox="-16 -57360 65568 65568" width="65568" height="65568">
<rect x="-16" y="-57360" width="65568" height="65568" fill="rgb(255,255,255)"/>
<g transform="scale(1,-1)">
<path d="M55936,47744Q65536,38144 65536,24576Q65536,11008 55936,1408Q46336,-8192 32768,-8192Q19200,-8192 9600,1408Q0,11008 0,24576Q0,38144 9600,47744Q19200,57344 32768,57344Q46336,57344 55936,47744Z" fill="#DD2E44"/>
<path d="M25472,35200Q26880,35200 26880,33536Q26880,31872 25472,31872L20992,31872Q22656,28032 25600,25088Q26112,24576 26112,23808Q26112,23168 25728,22656Q25216,22144 24576,22144Q23808,22144 23168,22784Q21632,24960 20224,28416Q20864,23808 20864,20992L20864,3456Q20864,2048 19072,2048Q17408,2048 17408,3456L17408,19712Q17408,22400 18176,27392Q15744,19456 12288,14720Q11648,13952 10752,13952Q10240,13952 9856,14208Q9088,14848 9088,15616Q9088,16256 9472,16896Q14464,23040 16768,31872L11520,31872Q10112,31872 10112,33536Q10112,35200 11520,35200L17408,35200L17408,41600Q14976,41088 12800,40832Q12800,40704 12544,40704Q11136,40704 10880,42240L10880,42496Q10880,43904 12160,44160Q19200,45184 23680,47488Q24192,47744 24832,47744Q25728,47744 26368,46848Q26752,46336 26752,45824Q26752,44928 25728,44416Q23936,43520 20864,42496L20864,35200L25472,35200ZM33792,36224Q33792,37632 35712,37632Q37504,37632 37504,36096L37504,19328Q44544,28800 48128,43520Q48384,44928 49792,44928Q50048,44928 50304,44800Q51968,44544 51968,43136Q51968,42752 51840,42624Q46976,24704 37504,13952L37504,9088Q37504,7424 39040,7168Q40320,7040 42496,7040Q44416,7040 45888,7424Q47360,7808 47744,9088Q48256,10880 48384,14080Q48384,15616 50176,15616L50304,15616Q51968,15488 51968,13824L51968,13696Q51712,9344 50944,6912Q50048,4480 47104,3840Q45440,3584 42496,3456Q39680,3456 37632,3712Q33792,4224 33792,7808L33792,11264Q30080,7808 25856,5248Q25216,4864 24576,4864Q23552,4864 23168,5760Q22784,6144 22784,6784Q22784,7936 23808,8448Q29056,11392 33792,16256L33792,36224ZM29696,30592Q29824,30592 29952,30592Q31488,30336 31488,28928Q31488,28544 31488,28416Q30720,20992 28416,15616Q27776,14464 26624,14464Q26240,14464 25856,14592Q24960,15104 24960,16000Q24960,16512 25216,17024Q27392,22016 28160,29184Q28288,30592 29696,30592ZM42624,41984Q43520,41216 43520,40320Q43520,39808 43264,39424Q42624,38528 41600,38528Q40832,38528 40320,39040Q36608,41984 32256,44160Q31360,44672 31360,45568Q31360,46080 31616,46464Q32256,47488 33408,47488Q33792,47488 34432,47232Q39296,44928 42624,41984ZM50816,29952Q51840,29952 52480,28800Q54656,24064 55936,18048Q56064,17536 56064,17280Q56064,16128 54784,15616Q54272,15616 54144,15616Q52864,15616 52480,17024Q50944,23296 49152,27392Q48896,27776 48896,28288Q48896,29312 49920,29824Q50304,29952 50816,29952Z" fill="#FFF"/>
</g>
</svg>
