<svg xmlns="http://www.w3.org/2000/svg" xmlns:xlink="http://www.w3.org/1999/xlink" viewBox="-16 -966 1307 1232" width="1307" height="1232">
<defs>

<clipPath id="c0"><rect x="4096" y="-14336" width="73728" height="73728"/></clipPath>
<path id="p13" d="M76800,17280L76800,17280L76800,-3328Q76800,-4736 75648,-5568Q74496,-6400 73088,-6016Q72256,-5760 70880,-5568Q69504,-5376 68096,-5280Q66688,-5184 65792,-5248Q63808,-5376 61472,-6240Q59136,-7104 56512,-7712Q53888,-8320 51136,-7744Q46592,-6784 42688,-4800Q38784,-2816 35584,-448Q32384,1920 30112,4128Q27840,6336 26624,7744Q25408,9152 25408,9152L27520,19904L21568,20096Q20352,19904 19488,19104Q18624,18304 18368,17152L16384,7744Q15680,5184 13728,4064Q11776,2944 9984,3264Q8768,3456 7616,4256Q6464,5056 5888,6336Q5312,7616 5760,9344Q5760,9344 6464,11392Q7168,13440 7872,16768Q8320,19008 8736,21184Q9152,23360 9472,24928Q9792,26496 10112,26880Q11520,28992 13952,29568L30976,36352Q32128,36672 33824,36352Q35520,36032 37152,35488Q38784,34944 39744,34432Q39744,34432 41312,33600Q42880,32768 45440,31424Q48000,30080 51040,28512Q54080,26944 57056,25408Q60032,23872 62464,22624Q64896,21376 66176,20800Q67264,20288 68672,20320Q70080,20352 71424,20544Q72768,20736 73472,20672Q74880,20608 75840,19648Q76800,18688 76800,17280Z"/>
<clipPath id="clip-g13"><use href="#p13"/></clipPath>
<radialGradient id="gr0" gradientUnits="userSpaceOnUse" cx="288" cy="494" r="357.95" fx="288" fy="494" fr="164.98" spreadMethod="pad">
<stop offset="0" stop-color="rgb(255,202,40)"/>
<stop offset="1" stop-color="rgb(255,179,0)"/>
</radialGradient>
<path id="p14" d="M55040,-8640Q57792,-8704 59648,-7328Q61504,-5952 62624,-3872Q63744,-1792 64288,288Q64832,2368 65024,3776Q65216,5184 65216,5184L14784,5056L20800,-3008Q22208,-4864 24416,-5504Q26624,-6144 28864,-5376L31936,-4288Q36672,-2624 41344,-4672Q43328,-5504 45792,-6432Q48256,-7360 50688,-8000Q53120,-8640 55040,-8640Z"/>
<clipPath id="clip-g14"><use href="#p14"/></clipPath>
<path id="p15" d="M26752,17152L39808,23936Q37952,24512 36800,26080Q35648,27648 35712,29568L35776,32064L26752,17152Z"/>
<clipPath id="clip-g15"><use href="#p15"/></clipPath>
<path id="p16" d="M16576,-5760Q17024,-5440 17280,-4928L51456,51840Q51968,52736 51776,53728Q51584,54720 50752,55168L45504,58112Q44672,58624 43680,58304Q42688,57984 42176,57088L8000,128Q7744,-192 7680,-640L4800,-12480Q4672,-13120 5184,-13472Q5696,-13824 6272,-13376L16576,-5760Z"/>
<clipPath id="clip-g16"><use href="#p16"/></clipPath>
<path id="p17" d="M32192,34688Q31936,34688 31776,34656Q31616,34624 31488,34624L14656,27904Q14528,27904 14400,27840Q12608,27392 11584,25856Q11584,25856 11584,25856Q11584,25856 11584,25792Q11328,25344 11040,23776Q10752,22208 10432,20672Q10240,19648 10048,18560Q9856,17472 9600,16384Q8960,13312 8320,11264Q7680,9216 7488,8832Q7168,7552 7808,6592Q8640,5312 10240,5056Q10496,4992 10752,4992Q12288,4992 13504,6144Q13888,6528 14528,6656Q14336,7232 14528,7808Q14656,8064 14656,8192Q14656,8192 14656,8224Q14656,8256 14720,8256L17472,16960Q17856,18624 19136,19776Q20416,20928 22144,21184Q22144,21184 22176,21184Q22208,21184 22208,21184L27392,21696Q27392,21696 27520,21696Q28352,21696 28864,21120Q29440,20416 29312,19520L28032,13056Q27904,12288 27200,11904L19008,7040Q19008,6976 18944,6976Q18176,6528 17536,5888Q17088,5440 16448,5376Q16640,4800 16448,4224Q15936,2816 16576,1408Q16832,896 17408,384Q17984,-128 19328,-128Q19584,-128 19840,-128Q19904,-128 20032,-128Q20928,-128 21440,-832L22272,-1920Q23808,-3968 26432,-3968Q27392,-3968 28224,-3712L31296,-2624Q33664,-1792 36160,-1792Q39232,-1792 42048,-3008Q46080,-4736 49536,-5760Q52992,-6784 55040,-6848L55232,-6848Q57536,-6848 59328,-5248Q59584,-4992 59968,-4864L60352,-4736Q61696,-4288 63040,-3904Q64384,-3520 65664,-3456Q65984,-3392 66496,-3392Q67968,-3392 70112,-3648Q72256,-3904 73600,-4288Q73728,-4352 73920,-4352Q74304,-4352 74656,-4064Q75008,-3776 75008,-3328L75008,17280Q75008,17920 74528,18368Q74048,18816 73408,18880L73344,18880Q73088,18880 72672,18848Q72256,18816 71808,18752Q71168,18688 70400,18624Q69632,18560 68800,18560Q66752,18560 65472,19136Q64128,19776 61760,20960Q59392,22144 56480,23648Q53568,25152 50560,26720Q47552,28288 44992,29632Q42432,30976 40768,31840Q39104,32704 38912,32832Q37824,33408 35776,34048Q33728,34688 32192,34688L32192,34688ZM32192,36480Q34048,36480 36320,35776Q38592,35072 39744,34432Q39744,34432 41312,33600Q42880,32768 45440,31424Q48000,30080 51040,28512Q54080,26944 57088,25408Q60096,23872 62528,22624Q64960,21376 66240,20800Q66752,20544 67424,20448Q68096,20352 68864,20352Q70080,20352 71328,20512Q72576,20672 73344,20672Q73344,20672 73408,20672Q73472,20672 73472,20672Q74880,20608 75840,19648Q76800,18688 76800,17280L76800,-3328Q76800,-4480 75936,-5312Q75072,-6144 73920,-6144Q73472,-6144 73088,-6016Q72000,-5696 69984,-5440Q67968,-5184 66496,-5184Q66112,-5184 65792,-5248Q64576,-5312 63264,-5696Q61952,-6080 60544,-6528Q59520,-7488 58208,-8064Q56896,-8640 55232,-8640L55040,-8640Q53120,-8576 50688,-7968Q48256,-7360 45792,-6432Q43328,-5504 41344,-4672Q38912,-3584 36224,-3584Q33984,-3584 31936,-4288L28864,-5376Q27712,-5760 26496,-5760Q24832,-5760 23328,-5056Q21824,-4352 20864,-3008L20032,-1920Q19648,-1920 19328,-1920Q17984,-1920 16832,-1344Q15680,-768 14976,640Q13952,2688 14720,4864Q13888,4032 12832,3616Q11776,3200 10752,3200Q10368,3200 9984,3264Q8768,3456 7616,4256Q6464,5056 5888,6336Q5312,7616 5824,9344Q5824,9344 6496,11392Q7168,13440 7872,16768Q8320,19008 8736,21184Q9152,23360 9472,24928Q9792,26496 10112,26880Q11520,28992 13952,29568L30976,36352Q31488,36480 32192,36480ZM16256,7168Q17024,8000 18112,8576L26240,13440L27520,19904L22400,19392Q21184,19200 20320,18400Q19456,17600 19200,16448L16384,7744Q16320,7424 16256,7168Z"/>
<clipPath id="clip-g17"><use href="#p17"/></clipPath>
<linearGradient id="gr1" gradientUnits="userSpaceOnUse" x1="669" y1="776" x2="179.58" y2="-105.76" spreadMethod="pad">
<stop offset="0" stop-color="rgb(100,181,246)"/>
<stop offset="1" stop-color="rgb(33,150,243)"/>
</linearGradient>
<path id="p18" d="M44416,56576Q43968,56576 43712,56128L9536,-768Q9472,-896 9408,-1024L7168,-10496L15488,-4352Q15616,-4224 15744,-4032L49856,52736Q50048,52992 50048,53152Q50048,53312 49984,53376Q49984,53568 49856,53568L44608,56576Q44544,56576 44416,56576L44416,56576ZM44416,58432Q44992,58432 45504,58112L50752,55168Q51584,54720 51776,53728Q51968,52736 51456,51840L17344,-4928Q17024,-5440 16576,-5760L6272,-13376Q6016,-13568 5696,-13568Q5248,-13568 4992,-13248Q4736,-12928 4800,-12480L7680,-640Q7744,-192 8000,128L42176,57088Q42944,58432 44416,58432Z"/>
<clipPath id="clip-g18"><use href="#p18"/></clipPath>
<path id="p19" d="M49600,22144Q57152,19264 61568,15552Q65984,11840 67296,8160Q68608,4480 66880,1856Q65664,0 63488,-1280Q61312,-2560 58784,-3296Q56256,-4032 53920,-4160Q51584,-4288 50112,-3776Q48064,-3072 46048,-1792Q44032,-512 42720,480Q41408,1472 41408,1472Q39872,2496 38432,3360Q36992,4224 35328,4288Q33664,4352 31616,3072Q27520,640 24736,-352Q21952,-1344 19872,-1088Q17792,-832 15936,320Q14976,896 14176,1920Q13376,2944 13216,4128Q13056,5312 14208,6528Q15936,8384 18528,10560Q21120,12736 23840,14848Q26560,16960 28832,18656Q31104,20352 32192,21248Q35328,23680 39680,23968Q44032,24256 49600,22144Z"/>
<clipPath id="clip-g19"><use href="#p19"/></clipPath>
<radialGradient id="gr2" gradientUnits="userSpaceOnUse" cx="634" cy="160" r="262.14" fx="634" fy="160" fr="120.82" spreadMethod="pad">
<stop offset="0" stop-color="rgb(255,202,40)"/>
<stop offset="1" stop-color="rgb(255,179,0)"/>
</radialGradient>
<path id="p20" d="M40640,22208Q41600,22208 42688,22080Q43520,22336 44640,22560Q45760,22784 47296,22912Q46208,23232 45248,23424Q42816,24000 40640,24000Q37760,24000 35328,23040Q33664,22336 32192,21248Q31104,20352 28832,18656Q26560,16960 23840,14848Q21120,12736 18528,10560Q15936,8384 14208,6528Q13056,5376 13216,4160Q13376,2944 14176,1952Q14976,960 15936,320Q17792,-832 19872,-1088Q21952,-1344 24736,-352Q27520,640 31616,3136Q33600,4288 35200,4288Q36800,4288 38176,3520Q39552,2752 40960,1792Q41152,1664 41408,1536Q41408,1536 42720,512Q44032,-512 46048,-1792Q48064,-3072 50112,-3776Q51264,-4160 53024,-4192Q54784,-4224 56704,-3840L56704,-3840Q55296,-3776 54080,-3392Q52864,-3008 51712,-2304Q51136,-2240 50688,-2048Q48832,-1408 46944,-224Q45056,960 43808,1920Q42560,2880 42560,2880Q42496,2880 42368,3008L41984,3264Q40512,4288 38880,5184Q37248,6080 35264,6080Q32960,6080 30656,4672Q27264,2560 24864,1632Q22464,704 20672,704Q18752,704 16896,1856Q15168,2944 15040,4160Q14976,4352 15040,4640Q15104,4928 15488,5312Q17216,7168 19936,9408Q22656,11648 25472,13824Q28288,16000 30464,17600Q31360,18304 32096,18880Q32832,19456 33344,19840Q36352,22208 40640,22208Z"/>
<clipPath id="clip-g20"><use href="#p20"/></clipPath>
<g id="cg0">
<g clip-path="url(#c0)">
<g transform="matrix(64,0,0,64,0,0)">
<g transform="matrix(0.015625,0,0,0.015625,0,0)">
<g clip-path="url(#clip-g13)">
<g transform="matrix(64,0,0,64,0,0)">
<g transform="matrix(1,0,0,0.9768066,0,0)">
<rect x="-32767" y="-32767" width="65534" height="65534" fill="url(#gr0)"/>
</g>
</g>
</g>
</g>
<g transform="matrix(0.015625,0,0,0.015625,0,0)">
<g clip-path="url(#clip-g14)">
<g transform="matrix(64,0,0,64,0,0)">
<rect x="-32767" y="-32767" width="65534" height="65534" fill="#FA0"/>
</g>
</g>
</g>
<g transform="matrix(0.015625,0,0,0.015625,0,0)">
<g clip-path="url(#clip-g15)">
<g transform="matrix(64,0,0,64,0,0)">
<rect x="-32767" y="-32767" width="65534" height="65534" fill="#EDA600"/>
</g>
</g>
</g>
<g transform="matrix(0.015625,0,0,0.015625,0,0)">
<g clip-path="url(#clip-g16)">
<g transform="matrix(64,0,0,64,0,0)">
<rect x="-32767" y="-32767" width="65534" height="65534" fill="#1E88E5"/>
</g>
</g>
</g>
<g transform="matrix(0.015625,0,0,0.015625,0,0)">
<g clip-path="url(#clip-g17)">
<g transform="matrix(64,0,0,64,0,0)">
<rect x="-32767" y="-32767" width="65534" height="65534" fill="#EDA600"/>
</g>
</g>
</g>
<g transform="matrix(0.015625,0,0,0.015625,0,0)">
<g clip-path="url(#clip-g16)">
<g transform="matrix(64,0,0,64,0,0)">
<rect x="-32767" y="-32767" width="65534" height="65534" fill="url(#gr1)"/>
</g>
</g>
</g>
<g transform="matrix(0.015625,0,0,0.015625,0,0)">
<g clip-path="url(#clip-g18)">
<g transform="matrix(64,0,0,64,0,0)">
<rect x="-32767" y="-32767" width="65534" height="65534" fill="#424242" fill-opacity="0.2"/>
</g>
</g>
</g>
<g transform="matrix(0.015625,0,0,0.015625,0,0)">
<g clip-path="url(#clip-g19)">
<g transform="matrix(64,0,0,64,0,0)">
<g transform="matrix(1,0,0,0.9691162,0,0)">
<rect x="-32767" y="-32767" width="65534" height="65534" fill="url(#gr2)"/>
</g>
</g>
</g>
</g>
<g transform="matrix(0.015625,0,0,0.015625,0,0)">
<g clip-path="url(#clip-g20)">
<g transform="matrix(64,0,0,64,0,0)">
<rect x="-32767" y="-32767" width="65534" height="65534" fill="#EDA600"/>
</g>
</g>
</g>
</g>
</g>
</g>
</defs>

<rect x="-16" y="-966" width="1307" height="1232" fill="rgb(255,255,255)"/>
<use href="#cg0" transform="translate(0,0) scale(0.015625,-0.015625)"/>
</svg>
